<?xml version="1.0" encoding="utf-8"?>
<!-- Generator: Adobe Illustrator 23.0.3, SVG Export Plug-In . SVG Version: 6.00 Build 0)  -->
<svg version="1.1" id="Layer_1" xmlns="http://www.w3.org/2000/svg" xmlns:xlink="http://www.w3.org/1999/xlink" x="0px" y="0px"
	 viewBox="0 0 267.1 68.5" style="enable-background:new 0 0 267.1 68.5;" xml:space="preserve">
<style type="text/css">
	.st0{fill:url(#SVGID_1_);}
	.st1{fill:url(#SVGID_2_);}
	.st2{fill:url(#SVGID_3_);}
	.st3{fill:url(#SVGID_4_);}
	.st4{fill:url(#SVGID_5_);}
	.st5{fill:url(#SVGID_6_);}
	.st6{fill:#919396;}
	.st7{fill:url(#SVGID_7_);}
	.st8{fill:url(#SVGID_8_);}
	.st9{fill:url(#SVGID_9_);}
	.st10{fill:url(#SVGID_10_);}
	.st11{fill:url(#SVGID_11_);}
	.st12{fill:url(#SVGID_12_);}
	.st13{fill:url(#SVGID_13_);}
	.st14{fill:#6D6E70;}
	.st15{fill:url(#SVGID_14_);}
</style>
<g>
	<g>
		<g>
			<linearGradient id="SVGID_1_" gradientUnits="userSpaceOnUse" x1="122.2486" y1="7.5946" x2="161.6362" y2="26.5161">
				<stop  offset="0" style="stop-color:#B400E7"/>
				<stop  offset="0.7086" style="stop-color:#4C31FF"/>
			</linearGradient>
			<path class="st0" d="M117.2,0.3h5.2c1.2,0,2.3,0.2,3.2,0.5s1.7,0.8,2.4,1.4c0.6,0.6,1.1,1.3,1.5,2.1c0.3,0.8,0.5,1.7,0.5,2.7v0
				c0,1-0.2,1.9-0.5,2.7c-0.3,0.8-0.8,1.5-1.5,2.1c-0.6,0.6-1.4,1.1-2.4,1.4c-0.9,0.3-2,0.5-3.2,0.5h-5.1V0.3z M122.4,10.3
				c1.1,0,2-0.3,2.7-0.9c0.7-0.6,1-1.4,1-2.5v0c0-1.1-0.3-1.9-1-2.5c-0.7-0.6-1.6-0.9-2.7-0.9h-1.5v6.8H122.4z"/>
			<linearGradient id="SVGID_2_" gradientUnits="userSpaceOnUse" x1="125.1486" y1="1.5578" x2="164.5363" y2="20.4793">
				<stop  offset="0" style="stop-color:#B400E7"/>
				<stop  offset="0.7086" style="stop-color:#4C31FF"/>
			</linearGradient>
			<path class="st1" d="M131,0.3h10.7v3.1h-7.1v2h6.4v2.9h-6.4v2.1h7.2v3.1H131V0.3z"/>
			<linearGradient id="SVGID_3_" gradientUnits="userSpaceOnUse" x1="127.3165" y1="-2.9549" x2="166.7041" y2="15.9666">
				<stop  offset="0" style="stop-color:#B400E7"/>
				<stop  offset="0.7086" style="stop-color:#4C31FF"/>
			</linearGradient>
			<path class="st2" d="M148.2,13.9c-1.2,0-2.3-0.2-3.4-0.6c-1.1-0.4-2-0.9-2.9-1.7l2.1-2.5c1.3,1.1,2.8,1.6,4.3,1.6
				c0.5,0,0.9-0.1,1.1-0.2c0.3-0.2,0.4-0.4,0.4-0.7v0c0-0.1,0-0.3-0.1-0.4c-0.1-0.1-0.2-0.2-0.4-0.3c-0.2-0.1-0.4-0.2-0.7-0.3
				c-0.3-0.1-0.7-0.2-1.1-0.3c-0.7-0.2-1.4-0.3-2-0.5c-0.6-0.2-1.1-0.5-1.6-0.8c-0.5-0.3-0.8-0.7-1.1-1.2s-0.4-1-0.4-1.7v0
				c0-0.6,0.1-1.2,0.4-1.7c0.2-0.5,0.6-1,1-1.4c0.5-0.4,1-0.7,1.6-0.9S147,0,147.8,0c1.1,0,2.2,0.2,3.1,0.5s1.7,0.7,2.4,1.3
				l-1.9,2.6c-0.6-0.4-1.2-0.8-1.9-1s-1.3-0.3-1.9-0.3c-0.4,0-0.8,0.1-1,0.2c-0.2,0.2-0.3,0.4-0.3,0.6v0c0,0.2,0,0.3,0.1,0.4
				c0.1,0.1,0.2,0.2,0.4,0.3c0.2,0.1,0.4,0.2,0.7,0.3s0.7,0.2,1.1,0.3c0.8,0.2,1.5,0.4,2.1,0.6c0.6,0.2,1.1,0.5,1.6,0.8
				c0.4,0.3,0.8,0.7,1,1.2c0.2,0.5,0.3,1,0.3,1.6v0c0,0.7-0.1,1.3-0.4,1.8c-0.3,0.5-0.6,1-1.1,1.4c-0.5,0.4-1,0.7-1.7,0.9
				C149.8,13.8,149,13.9,148.2,13.9z"/>
			<linearGradient id="SVGID_4_" gradientUnits="userSpaceOnUse" x1="128.939" y1="-6.3325" x2="168.3267" y2="12.589">
				<stop  offset="0" style="stop-color:#B400E7"/>
				<stop  offset="0.7086" style="stop-color:#4C31FF"/>
			</linearGradient>
			<path class="st3" d="M154.7,0.3h3.7v13.4h-3.7V0.3z"/>
			<linearGradient id="SVGID_5_" gradientUnits="userSpaceOnUse" x1="130.8837" y1="-10.3805" x2="170.2713" y2="8.541">
				<stop  offset="0" style="stop-color:#B400E7"/>
				<stop  offset="0.7086" style="stop-color:#4C31FF"/>
			</linearGradient>
			<path class="st4" d="M166.9,13.9c-1,0-2-0.2-2.9-0.5c-0.9-0.3-1.7-0.8-2.3-1.4c-0.6-0.6-1.2-1.3-1.5-2.2
				c-0.4-0.8-0.6-1.8-0.6-2.8v0c0-1,0.2-1.9,0.5-2.7c0.4-0.8,0.9-1.6,1.5-2.2c0.6-0.6,1.4-1.1,2.3-1.5c0.9-0.4,1.8-0.5,2.9-0.5
				c1.2,0,2.2,0.2,3.1,0.5s1.6,0.8,2.4,1.4l-2.2,2.6c-0.5-0.4-1-0.7-1.5-0.9c-0.5-0.2-1.1-0.3-1.7-0.3c-0.5,0-0.9,0.1-1.3,0.3
				c-0.4,0.2-0.8,0.5-1.1,0.8c-0.3,0.3-0.5,0.7-0.7,1.2c-0.2,0.4-0.3,0.9-0.3,1.4v0c0,0.5,0.1,1,0.3,1.5c0.2,0.5,0.4,0.8,0.8,1.2
				c0.3,0.3,0.7,0.6,1.1,0.8c0.4,0.2,0.9,0.3,1.5,0.3c0.9,0,1.6-0.2,2.1-0.6V8.5h-2.6V5.8h6.1v6c-0.7,0.6-1.6,1.1-2.5,1.5
				C169.2,13.7,168.2,13.9,166.9,13.9z"/>
			<linearGradient id="SVGID_6_" gradientUnits="userSpaceOnUse" x1="133.3931" y1="-15.6043" x2="172.7808" y2="3.3172">
				<stop  offset="0" style="stop-color:#B400E7"/>
				<stop  offset="0.7086" style="stop-color:#4C31FF"/>
			</linearGradient>
			<path class="st5" d="M174,0.3h3.5l5.5,7.1V0.3h3.6v13.4h-3.2l-5.7-7.3v7.3H174V0.3z"/>
		</g>
	</g>
	<g>
		<path class="st6" d="M117.2,18.3h19c4.4,0,8.3,0.6,11.8,1.8c3.4,1.2,6.3,2.9,8.7,5c2.4,2.2,4.2,4.7,5.4,7.7c1.2,3,1.9,6.2,1.9,9.8
			v0.1c0,3.6-0.6,6.9-1.9,9.9c-1.3,3-3.1,5.6-5.5,7.8c-2.4,2.2-5.3,3.9-8.8,5.2c-3.5,1.2-7.4,1.9-11.8,1.9h-18.7V18.3z M136.4,55.4
			c4.1,0,7.4-1.1,9.9-3.2c2.5-2.2,3.7-5.2,3.7-9.2v-0.1c0-3.9-1.2-7-3.7-9.2c-2.5-2.2-5.8-3.3-9.9-3.3h-5.6v25H136.4z"/>
		<path class="st6" d="M191.3,68.5c-3.8,0-7.3-0.7-10.5-2c-3.2-1.3-6-3.2-8.4-5.4c-2.3-2.3-4.2-5-5.5-8.1c-1.3-3.1-2-6.4-2-9.9v-0.1
			c0-3.5,0.7-6.8,2-9.9c1.3-3.1,3.2-5.8,5.6-8.2c2.4-2.3,5.2-4.1,8.4-5.5c3.2-1.3,6.7-2,10.5-2s7.3,0.7,10.5,2
			c3.2,1.3,6,3.2,8.4,5.4c2.3,2.3,4.2,5,5.5,8.1c1.3,3.1,2,6.4,2,9.9v0.1c0,3.5-0.7,6.8-2,9.9c-1.3,3.1-3.2,5.8-5.6,8.2
			c-2.4,2.3-5.2,4.1-8.4,5.5C198.6,67.8,195.1,68.5,191.3,68.5z M191.4,56.2c1.9,0,3.6-0.4,5.1-1.1c1.6-0.7,2.9-1.7,3.9-2.8
			c1.1-1.2,1.9-2.6,2.5-4.2c0.6-1.6,0.9-3.3,0.9-5.1v-0.1c0-1.8-0.3-3.5-0.9-5.1c-0.6-1.6-1.5-3-2.6-4.2c-1.1-1.2-2.5-2.2-4-2.9
			c-1.6-0.7-3.3-1.1-5.1-1.1c-1.9,0-3.6,0.4-5.1,1.1c-1.5,0.7-2.8,1.7-3.9,2.8c-1.1,1.2-2,2.6-2.5,4.2c-0.6,1.6-0.9,3.3-0.9,5.1v0.1
			c0,1.8,0.3,3.5,0.9,5.1c0.6,1.6,1.5,3,2.6,4.2c1.1,1.2,2.4,2.2,4,2.9C187.8,55.9,189.5,56.2,191.4,56.2z"/>
		<path class="st6" d="M219.6,18.3h13.6v20l16.9-20h16.2l-18.6,21.2l19.3,28h-16.4l-12.4-18.3l-5,5.6v12.7h-13.6V18.3z"/>
	</g>
	<g>
		<g>
			<g>
				<g>
					<linearGradient id="SVGID_7_" gradientUnits="userSpaceOnUse" x1="109.7413" y1="30.3877" x2="-19.5852" y2="63.1136">
						<stop  offset="0" style="stop-color:#B400E7"/>
						<stop  offset="0.7086" style="stop-color:#4C31FF"/>
					</linearGradient>
					<path class="st7" d="M83.5,0.7c-6.1,0-11.5,0.8-16.2,2.5s-8.7,4-12,6.9c-3.3,3-5.7,6.5-7.5,10.6c-1.7,4.1-2.6,8.6-2.6,13.5v0.2
						c0,4,0.6,7.7,1.8,11.2c1.3-2.4,2-5.4,2-8.8v-0.2c0-0.2,0-0.4,0-0.7h8.8c0.8,0.3,1.7,0.5,2.6,0.4c1.1-0.1,2.1-0.2,3.2-0.3
						c0-0.1,0-0.2,0-0.3c0-0.3,0.1-0.5,0.3-0.7c0.1-0.2,0.3-0.2,0.5-0.3c0,0,0-0.1,0-0.1v-0.2c0-5.4,1.7-9.6,5.2-12.6
						c3.4-3,8-4.5,13.6-4.5h7.7v34.5h-7.7c-5.6,0-10.2-1.5-13.6-4.5c-0.9-0.8-1.7-1.6-2.3-2.6c-0.4,1.8-0.9,3.6-1.7,5.3
						c-1.7,4.2-4.3,7.8-7.6,10.8c0,0,0,0,0,0c2.8,2,6,3.7,9.6,5c4.8,1.7,10.2,2.6,16.3,2.6h25.8V0.7H83.5z"/>
					<linearGradient id="SVGID_8_" gradientUnits="userSpaceOnUse" x1="105.126" y1="12.1488" x2="-24.2005" y2="44.8747">
						<stop  offset="0" style="stop-color:#B400E7"/>
						<stop  offset="0.7086" style="stop-color:#4C31FF"/>
					</linearGradient>
					<path class="st8" d="M62.6,22.8c-1.7,2.6-2.5,5.8-2.5,9.6v0.2c0,0.5,0,0.9,0.1,1.3h-14c0,0,0,0.1,0,0.1
						c-0.1,0.4-0.4,0.6-0.8,0.7c0,5.5-1.7,9.7-5.2,12.7c-3.4,3-8,4.5-13.6,4.5h-7.7V17.4h7.7c5.6,0,10.2,1.5,13.6,4.5
						c0.7,0.6,1.2,1.2,1.8,1.9c0.4-1.8,0.9-3.5,1.6-5.2c1.7-4.1,4.2-7.6,7.5-10.6c0.1-0.1,0.2-0.2,0.3-0.3c-2.6-1.8-5.5-3.3-8.9-4.5
						c-4.7-1.6-10.2-2.5-16.2-2.5H0v67.8h25.8c6.1,0,11.5-0.9,16.3-2.6c4.8-1.7,8.9-4.1,12.2-7.1c3.3-3,5.8-6.6,7.6-10.8
						c1.7-4.2,2.6-8.7,2.6-13.6v-0.2C64.4,30.1,63.8,26.3,62.6,22.8z"/>
				</g>
			</g>
			<linearGradient id="SVGID_9_" gradientUnits="userSpaceOnUse" x1="103.2013" y1="4.5429" x2="-26.1252" y2="37.2688">
				<stop  offset="0" style="stop-color:#B400E7"/>
				<stop  offset="0.7086" style="stop-color:#4C31FF"/>
			</linearGradient>
			<path class="st9" d="M51.2,7.7c0,0-10.8,8.8-10.1,23.3c0,0-3-6-1.7-13.9C39.4,17.1,42.6,6.6,51.2,7.7z"/>
			<linearGradient id="SVGID_10_" gradientUnits="userSpaceOnUse" x1="111.1462" y1="35.9397" x2="-18.1803" y2="68.6656">
				<stop  offset="0" style="stop-color:#B400E7"/>
				<stop  offset="0.7086" style="stop-color:#4C31FF"/>
			</linearGradient>
			<path class="st10" d="M58,60.9c0,0,11.3-10.3,10-25.6c0,0,3.7,6.8,1.4,14.3S58,60.9,58,60.9z"/>
		</g>
		<g>
			<g>
				<g>
					<linearGradient id="SVGID_11_" gradientUnits="userSpaceOnUse" x1="109.7413" y1="30.3877" x2="-19.5852" y2="63.1136">
						<stop  offset="0" style="stop-color:#B400E7"/>
						<stop  offset="0.7086" style="stop-color:#4C31FF"/>
					</linearGradient>
					<path class="st11" d="M83.5,0.7c-6.1,0-11.5,0.8-16.2,2.5s-8.7,4-12,6.9c-3.3,3-5.7,6.5-7.5,10.6c-1.7,4.1-2.6,8.6-2.6,13.5
						v0.2c0,4,0.6,7.7,1.8,11.2c1.3-2.4,2-5.4,2-8.8v-0.2c0-0.2,0-0.4,0-0.7h8.8c0.8,0.3,1.7,0.5,2.6,0.4c1.1-0.1,2.1-0.2,3.2-0.3
						c0-0.1,0-0.2,0-0.3c0-0.3,0.1-0.5,0.3-0.7c0.1-0.2,0.3-0.2,0.5-0.3c0,0,0-0.1,0-0.1v-0.2c0-5.4,1.7-9.6,5.2-12.6
						c3.4-3,8-4.5,13.6-4.5h7.7v34.5h-7.7c-5.6,0-10.2-1.5-13.6-4.5c-0.9-0.8-1.7-1.6-2.3-2.6c-0.4,1.8-0.9,3.6-1.7,5.3
						c-1.7,4.2-4.3,7.8-7.6,10.8c0,0,0,0,0,0c2.8,2,6,3.7,9.6,5c4.8,1.7,10.2,2.6,16.3,2.6h25.8V0.7H83.5z"/>
				</g>
			</g>
			<linearGradient id="SVGID_12_" gradientUnits="userSpaceOnUse" x1="103.2013" y1="4.5429" x2="-26.1252" y2="37.2688">
				<stop  offset="0" style="stop-color:#B400E7"/>
				<stop  offset="0.7086" style="stop-color:#4C31FF"/>
			</linearGradient>
			<path class="st12" d="M51.2,7.7c0,0-10.8,8.8-10.1,23.3c0,0-3-6-1.7-13.9C39.4,17.1,42.6,6.6,51.2,7.7z"/>
			<linearGradient id="SVGID_13_" gradientUnits="userSpaceOnUse" x1="111.1462" y1="35.9397" x2="-18.1803" y2="68.6656">
				<stop  offset="0" style="stop-color:#B400E7"/>
				<stop  offset="0.7086" style="stop-color:#4C31FF"/>
			</linearGradient>
			<path class="st13" d="M58,60.9c0,0,11.3-10.3,10-25.6c0,0,3.7,6.8,1.4,14.3S58,60.9,58,60.9z"/>
		</g>
	</g>
	<rect x="193.2" y="5.4" class="st6" width="73.9" height="1"/>
	<path class="st14" d="M136.1,18.3h-19v49.2L130.8,51V30.4h5.6c3.7,0,6.8,0.9,9.2,2.7l8.3-10.1c-1.8-1.2-3.7-2.2-5.9-2.9
		C144.5,18.9,140.6,18.3,136.1,18.3z M210.3,24.8c-2.3-2.3-5.1-4.1-8.4-5.4c-3.2-1.3-6.7-2-10.5-2c-3.8,0-7.3,0.7-10.5,2
		c-3.2,1.3-6,3.2-8.4,5.5c-0.4,0.4-0.8,0.8-1.1,1.2l11,7.4c1.1-1.1,2.3-2,3.8-2.7c1.5-0.7,3.2-1.1,5.1-1.1c1.9,0,3.6,0.4,5.1,1.1
		c1.6,0.7,2.9,1.7,4,2.9c1.1,1.2,2,2.6,2.6,4.2c0.6,1.6,0.9,3.3,0.9,5.1v0.1c0,1.5-0.2,3-0.7,4.4l11.5,7.7c0.4-0.7,0.8-1.5,1.1-2.3
		c1.3-3.1,2-6.4,2-9.9v-0.1c0-3.5-0.7-6.8-2-9.9C214.5,29.8,212.7,27.1,210.3,24.8z M233.2,38.3v-20h-13.6v40.1l13.6,9.1v0V54.8
		l5-5.6l0.9,1.3l11.1-32.2L233.2,38.3z"/>
	<linearGradient id="SVGID_14_" gradientUnits="userSpaceOnUse" x1="7.293" y1="12.8259" x2="102.7107" y2="56.5919">
		<stop  offset="0" style="stop-color:#B400E7"/>
		<stop  offset="0.7086" style="stop-color:#4C31FF"/>
	</linearGradient>
	<path class="st15" d="M83.5,0.7c-6.1,0-11.5,0.8-16.2,2.5s-8.7,4-12,6.9c-3.3,3-5.7,6.5-7.5,10.6c-1.7,4.1-2.6,8.6-2.6,13.5v0.2
		c0,0.1,0,0.2,0,0.3c0,0,0,0,0,0c0,2.3-0.3,4.4-0.9,6.2c6.3-3.5,13.2-7,20.5-10.4c0.2-1.1,0.5-2.2,0.9-3.2c0,0,0,0,0-0.1
		c0.2-0.5,0.4-1,0.7-1.5c0-0.1,0.1-0.1,0.1-0.2c0.2-0.4,0.5-0.8,0.8-1.2c0.1-0.2,0.3-0.3,0.4-0.5c0.2-0.3,0.4-0.6,0.7-0.8
		c0.4-0.4,0.8-0.8,1.2-1.2c3.4-3,8-4.5,13.6-4.5h7.7v1.9c6.1-2.4,12.4-4.6,18.8-6.5v-12H83.5z M44.6,16.1c0.3-0.6,0.7-1.2,1-1.8
		c0,0,0,0,0,0c0.1-0.2,0.2-0.4,0.3-0.5c0.6-0.9,1.2-1.8,1.8-2.5c0,0,0,0,0.1-0.1c0,0,0,0,0,0c0,0,0,0,0,0c0.3-0.3,0.5-0.6,0.7-0.9
		c0.2-0.2,0.4-0.4,0.6-0.6c0.5-0.5,1-1.1,1.5-1.6c0.3-0.3,0.6-0.5,0.6-0.5c-2.6-1.8-5.5-3.3-8.9-4.5c-4.7-1.6-10.2-2.5-16.2-2.5H0
		v67.8c0,0,9.6-7.1,25.3-16.7h-6.5V17.4h7.7c5.1,0,9.3,1.3,12.6,3.7c0,0.3,0,0.5,0,0.8c0,0.1,0,0.2,0,0.3c0,0.3,0,0.5,0,0.8
		c0,0.1,0,0.2,0,0.3c0,0.3,0,0.5,0.1,0.7c0,0.1,0,0.2,0,0.2c0.2,1.2,0.4,2.2,0.6,3.1c0,0,0,0.1,0,0.1c0.1,0.2,0.1,0.4,0.2,0.6
		c0,0,0,0.1,0,0.1c0.1,0.2,0.1,0.4,0.2,0.5c0,0,0,0,0,0.1c0.2,0.5,0.3,0.9,0.5,1.3c0,0,0,0.1,0,0.1c0,0.1,0.1,0.2,0.1,0.2
		c0,0,0,0.1,0,0.1c0,0.1,0,0.1,0.1,0.1c0,0,0,0.1,0,0.1c0,0,0,0.1,0,0.1c0,0,0,0.1,0,0.1c0-0.8,0-1.6,0-2.3c0-0.3,0-0.5,0-0.8
		c0-0.5,0.1-1,0.1-1.5c0-0.3,0.1-0.6,0.1-0.9c0.1-0.6,0.2-1.2,0.3-1.8c0,0,0,0,0,0c0,0,0,0,0.1,0.1c0.4-1.8,0.9-3.5,1.6-5.2
		C43.8,17.7,44.2,16.9,44.6,16.1C44.6,16.1,44.6,16.1,44.6,16.1z"/>
</g>
</svg>
